<svg width="216" height="217" viewBox="0 0 216 217" fill="none" xmlns="http://www.w3.org/2000/svg">
<path d="M139.741 43.787C115.638 43.787 76.6324 43.7867 56.5892 43.7881C36.5461 43.7895 35.4662 43.7922 34.1565 43.8517C32.8469 43.9112 31.3081 44.0273 30.196 44.1696C29.0838 44.3119 28.3981 44.4803 27.7389 44.7852C27.0798 45.0901 26.4469 45.5319 25.9243 45.9385C25.4016 46.345 24.9887 46.7168 24.5212 47.1988C24.0537 47.6808 23.5318 48.2732 23.1281 48.8395C22.7245 49.4057 22.4399 49.9452 22.1611 50.7612C21.8824 51.5772 21.609 52.6695 21.3302 54.1853C21.0514 55.701 20.7673 57.6408 20.4915 59.4296C20.2156 61.2183 19.948 62.8556 19.6896 64.6705C19.4311 66.4854 19.1813 68.4771 18.9345 70.3442C18.6877 72.2113 18.4444 73.9539 17.9797 77.5749C17.5151 81.196 16.8299 86.696 15.7904 94.1733C14.7508 101.651 13.3568 111.104 12.1488 119.572C10.9408 128.039 9.91854 135.52 8.61764 144.219C7.31674 152.919 5.73778 162.838 4.30911 172.56C2.88045 182.282 1.60202 191.806 0.905114 197.207C0.208209 202.608 0.0921137 203.885 0.0340381 204.919C-0.0240417 205.953 -0.023543 206.743 0.162308 207.695C0.34816 208.648 0.719108 209.763 1.35794 210.785C1.99678 211.807 2.90354 212.736 3.75145 213.479C4.59936 214.223 5.38842 214.78 6.29441 215.164C7.2004 215.547 8.22344 215.757 9.24558 215.873C10.2677 215.989 11.2897 216.012 11.8008 216.024C12.3119 216.034 12.3114 216.036 20.651 216.036H26.9459V67.9585H60.8018L108.073 181.778L155.343 67.9585H188.987V216.04C189.616 216.04 191.134 216.04 191.717 216.04C205.204 216.044 206.19 216.055 207.159 215.912C208.128 215.769 209.082 215.473 210.084 214.915C211.086 214.356 212.136 213.535 213.031 212.574C213.927 211.613 214.667 210.513 215.069 209.15C215.472 207.786 215.537 206.16 215.397 204.296C215.257 202.431 214.912 200.329 213.261 188.814C211.61 177.299 208.654 156.372 205.96 137.219C203.266 118.065 200.835 100.687 199.143 88.6134C197.451 76.5401 196.499 69.7735 195.793 64.8457C195.087 59.9178 194.627 56.8291 194.282 54.743C193.937 52.6569 193.706 51.573 193.23 50.5382C192.753 49.5033 192.03 48.5178 191.226 47.6472C190.421 46.7766 189.534 46.0208 188.713 45.4623C187.891 44.9038 187.136 44.542 186.068 44.2956C185.001 44.0493 183.62 43.9186 178.331 43.8529C173.042 43.7872 163.843 43.787 139.741 43.787ZM56.7554 121.469V216.036H94.7771L56.7554 121.469ZM159.176 121.469L121.357 216.036H128.598C140.053 216.036 148.31 216.037 159.176 216.038V121.469Z" fill="#F5F5F5"/>
<path fill-rule="evenodd" clip-rule="evenodd" d="M105.411 0.700186C101.326 0.951364 97.2998 1.77274 93.4532 3.13942C82.7548 6.93953 74.0355 14.7425 69.2092 24.8356C64.3828 34.9286 63.8437 46.4872 67.7102 56.9743L88.1788 49.7459C86.8231 47.1639 86.1179 44.3471 86.1132 41.4946C86.1133 38.9366 86.6766 36.4037 87.7712 34.0404C88.8657 31.6772 90.47 29.5299 92.4923 27.7212C94.5147 25.9125 96.9156 24.4777 99.558 23.4989C102.2 22.5201 105.032 22.0163 107.892 22.0164C113.668 22.0165 119.207 24.0687 123.292 27.7215C127.376 31.3744 129.67 36.3287 129.67 41.4946C129.67 44.0526 129.107 46.5856 128.013 48.9489C126.918 51.3122 125.314 53.4596 123.292 55.2684C121.27 57.0773 118.869 58.5121 116.227 59.4911C113.584 60.47 110.752 60.9739 107.892 60.9739C103.784 60.9695 99.7603 59.9256 96.2868 57.9629C92.8133 56.0001 90.0314 53.1986 88.2625 49.8819L67.8206 57.271C71.7674 67.7297 79.7891 76.23 90.125 80.906C100.461 85.5821 112.267 86.0518 122.95 82.2121C133.634 78.3725 142.324 70.5372 147.111 60.4261C151.899 50.315 152.393 38.7542 148.486 28.2813C145.303 19.7493 139.388 12.453 131.625 7.48195C123.861 2.5109 114.665 0.131867 105.411 0.700186Z" fill="#F5F5F5"/>
</svg>
